<svg xmlns="http://www.w3.org/2000/svg" viewBox="0 0 512 512">
  <rect width="512" height="512" rx="100" fill="#4f46e5"/>
  <path d="M256 96c-88.4 0-160 71.6-160 160 0 88.4 71.6 160 160 160s160-71.6 160-160c0-88.4-71.6-160-160-160zm0 288c-70.7 0-128-57.3-128-128 0-70.7 57.3-128 128-128 70.7 0 128 57.3 128 128 0 70.7-57.3 128-128 128z" fill="#ffffff" opacity="0.2"/>
  <path d="M240 160h32v192h-32z" fill="#ffffff"/>
  <path d="M208 304h96v32h-96z" fill="#ffffff"/>
  <circle cx="256" cy="368" r="48" fill="#ffffff"/>
  <path d="M256 128L230 80h52L256 128z" fill="#cbd5e1"/>
</svg>
